<?xml version="1.0" encoding="UTF-8" standalone="no"?>
<!DOCTYPE svg PUBLIC "-//W3C//DTD SVG 20010904//EN"
              "http://www.w3.org/TR/2001/REC-SVG-20010904/DTD/svg10.dtd">

<svg xmlns="http://www.w3.org/2000/svg"
     width="1.86667in" height="1.86667in"
     viewBox="0 0 560 560">
  <path id="github"
        fill="black" stroke="black" stroke-width="1"
        d="M 226.86,433.00
           C 226.86,433.00 206.00,435.96 206.00,435.96
             189.21,436.61 172.08,430.03 161.33,417.00
             161.33,417.00 148.14,393.00 148.14,393.00
             140.00,380.47 136.34,381.29 129.05,374.68
             126.64,372.49 123.96,369.43 127.25,366.60
             131.03,363.35 140.86,365.55 145.00,367.34
             164.09,375.57 165.47,389.73 178.04,399.98
             188.81,408.77 200.74,410.23 214.00,407.74
             217.14,407.15 224.23,405.52 226.42,403.30
             228.26,401.43 229.29,394.99 230.46,392.00
             233.25,384.89 235.98,382.03 240.00,376.00
             217.63,374.18 192.21,366.45 175.00,351.70
             155.06,334.61 145.31,306.86 145.00,281.00
             144.81,264.19 145.55,252.62 152.89,237.00
             152.89,237.00 165.32,217.00 165.32,217.00
             166.00,214.42 163.78,207.26 163.27,204.00
             161.52,192.68 161.96,184.13 165.01,173.00
             165.85,169.94 166.97,164.65 169.42,162.81
             173.27,159.36 182.63,161.67 187.00,162.81
             196.71,166.03 205.13,169.91 214.00,174.86
             218.94,177.62 224.16,182.30 230.00,181.68
             230.00,181.68 243.00,179.00 243.00,179.00
             250.22,177.59 261.74,176.01 269.00,176.00
             269.00,176.00 290.00,176.00 290.00,176.00
             297.26,176.01 308.78,177.59 316.00,179.00
             316.00,179.00 329.00,181.68 329.00,181.68
             334.84,182.30 340.06,177.62 345.00,174.86
             353.87,169.91 362.29,166.03 372.00,163.02
             376.15,161.74 384.85,159.66 388.78,162.02
             392.05,164.00 393.33,170.43 394.27,174.00
             395.97,180.48 397.48,191.40 396.58,198.00
             396.58,198.00 393.68,217.00 393.68,217.00
             393.68,217.00 406.11,237.00 406.11,237.00
             413.45,252.62 414.19,264.19 414.00,281.00
             414.00,281.00 412.08,298.00 412.08,298.00
             406.68,330.68 391.58,351.91 361.00,365.69
             347.03,371.99 333.69,373.36 319.00,376.00
             323.35,382.52 326.69,386.20 329.25,394.00
             332.82,404.88 332.00,413.82 332.14,425.00
             332.14,425.00 332.14,467.00 332.14,467.00
             332.00,468.98 331.92,472.15 332.14,474.00
             335.73,486.00 349.30,480.45 357.00,477.40
             377.95,469.09 397.69,457.72 415.00,443.25
             457.31,407.85 483.60,357.86 488.96,303.00
             488.96,303.00 488.96,294.00 488.96,294.00
             488.96,294.00 489.99,285.00 489.99,285.00
             489.99,285.00 488.96,273.00 488.96,273.00
             488.96,273.00 488.96,264.00 488.96,264.00
             487.14,246.30 483.29,230.81 477.67,214.00
             470.82,193.54 458.88,173.11 445.87,156.00
             433.11,139.21 417.25,124.77 400.00,112.72
             320.62,57.25 209.90,64.23 138.00,129.17
             117.72,147.49 102.92,167.66 90.75,192.00
             79.54,214.43 72.55,239.02 70.04,264.00
             70.04,264.00 70.04,273.00 70.04,273.00
             70.04,273.00 69.01,282.00 69.01,282.00
             69.01,282.00 69.96,295.00 69.96,295.00
             72.44,351.80 97.51,400.52 139.00,438.91
             156.13,454.76 179.34,468.36 201.00,477.00
             208.80,480.11 223.16,486.40 226.86,474.00
             227.08,472.15 227.00,468.98 226.86,467.00
             226.86,467.00 226.86,433.00 226.86,433.00 Z
           M 145.00,371.00
           C 145.00,371.00 144.00,374.00 144.00,374.00
             144.00,374.00 148.00,375.00 148.00,375.00
             148.00,375.00 145.00,371.00 145.00,371.00 Z
           M 152.00,379.00
           C 153.11,382.47 153.53,382.89 157.00,384.00
             156.30,380.00 156.00,379.70 152.00,379.00 Z
           M 161.00,389.00
           C 160.41,393.73 161.58,394.65 166.00,396.00
             165.48,391.58 165.25,390.64 161.00,389.00 Z
           M 177.00,408.00
           C 176.83,406.93 176.87,406.15 176.41,405.06
             173.68,398.50 167.47,403.54 173.15,406.98
             174.48,407.78 175.57,407.77 177.00,408.00 Z
           M 184.00,410.77
           C 184.36,411.92 184.35,412.54 185.13,413.58
             189.54,419.45 195.01,410.75 186.98,410.77
             186.98,410.77 184.00,410.77 184.00,410.77 Z
           M 217.00,415.00
           C 217.00,415.00 219.98,415.72 219.98,415.72
             227.47,416.28 223.31,408.34 218.54,412.59
             217.42,413.59 217.33,414.41 217.00,415.00 Z
           M 201.00,417.00
           C 201.00,417.00 203.98,417.72 203.98,417.72
             211.47,418.28 207.31,410.34 202.54,414.59
             201.42,415.59 201.33,416.41 201.00,417.00 Z" />
</svg>
